<?xml version="1.0" encoding="UTF-8"?>
<!DOCTYPE svg PUBLIC "-//W3C//DTD SVG 1.1//EN" "http://www.w3.org/Graphics/SVG/1.1/DTD/svg11.dtd">
<!-- Creator: CorelDRAW 2017 -->
<svg xmlns="http://www.w3.org/2000/svg" xml:space="preserve" width="150mm" height="101.145mm" version="1.1" style="shape-rendering:geometricPrecision; text-rendering:geometricPrecision; image-rendering:optimizeQuality; fill-rule:evenodd; clip-rule:evenodd"
viewBox="0 0 15000 10114.5"
 xmlns:xlink="http://www.w3.org/1999/xlink">
 <defs>
  <style type="text/css">
   <![CDATA[
    .fil1 {fill:black}
    .fil0 {fill:white;fill-rule:nonzero}
   ]]>
  </style>
 </defs>
 <g id="Слой_x0020_1">
  <metadata id="CorelCorpID_0Corel-Layer"/>
  <g id="_2782631426112">
   <path class="fil0" d="M4135.84 8653.93l-104.85 321.42c-387.82,-90.61 -822.33,-154.1 -1324.67,-88.35l-595.02 -1924.8 1063.79 0 273.8 913.83 304.41 -913.83 745.72 0 318.1 913.83 271.38 -913.83 1052.52 0 -783.45 2670.94c-358.66,-187.07 -716.29,-373.58 -1075.98,-561.18l-145.75 -418.03zm2989.27 631.34l-139.32 477.28 -1096.82 0 875.37 -2800.35 1545.37 0 730.42 2463.58c-317.14,77.77 -619.45,142.67 -1007.04,306.8l-120.39 -447.31 -787.59 0zm193.28 -657.02l401.04 0 -198.12 -683.95 -202.92 683.95zm4265.68 -1666.05c-257.74,889.15 -515.5,1778.29 -773.23,2667.45 -322.51,-105.09 -707.49,-293.67 -1200.54,-245.49l-736.88 -2421.96 1083.13 0 280.25 928.85 271.38 -928.85 1075.89 0zm1354.52 2097.6l947.84 0c0,234.25 0,-8.44 0,225.81 -309.69,-1.11 -1324.27,13.57 -2030.97,476.94l0 -2800.35 2030.97 0 0 702.76 -947.84 0 0 346.98 662.76 0 0 702.74 -662.76 0 0 345.12z"/>
   <g>
    <path class="fil1" d="M1096.77 9572.43c-51.31,-365.13 -77.07,-733.42 -77.07,-1102.17 0,-3329.35 2082.31,-6303.2 5210.84,-7441.91l-2.87 2686.68 -1837.34 -6.17 0 857.09 1837.34 6.18 0 1653.42 857.09 0 0 -1653.42 1270.46 0 0 1653.42 857.09 0 0 -1653.42 612.04 0 90.48 -1.98 1141.17 1654.05 974.23 0.37 -1279.6 -1854.72c762.11,-350.87 1291.22,-955.87 1291.22,-2015.22 0,-1059.36 -992.8,-2217.52 -2217.5,-2217.52l-2183.06 0 0 857.1 2183.06 0c749.08,0 1356.33,611.33 1356.33,1360.4 0,749.08 -607.25,1360.42 -1356.33,1360.42l-612.04 0 0 -1613.11 -857.09 0 0 1613.11 -1270.46 0 5.91 -3571.77 -857.08 -2.86c-3607.45,1172.14 -6049.9,4536.73 -6049.9,8329.86 0,509.7 44.5,1018.43 133.02,1520.38l780.06 -418.21zm12742.92 -8591.47l0 5244.61 -857.1 0 0 -5244.61 -1222.12 0 0 -857.1 3055.85 0 0 857.1 -976.63 0z"/>
    <path id="1" class="fil0" d="M919.82 8470.26l199.76 0 0 0 0.08 34.14 0.22 34.12 0.37 34.13 0.53 34.11 0.67 34.13 0.82 34.11 0.97 34.11 1.11 34.1 1.27 34.09 1.41 34.1 1.56 34.06 1.72 34.08 1.85 34.08 2.01 34.03 2.16 34.05 2.3 34.03 2.46 34.03 2.6 34.01 2.75 33.99 2.9 34.01 3.04 33.97 3.2 33.97 3.34 33.95 3.5 33.92 3.64 33.94 3.78 33.91 3.94 33.87 4.09 33.89 4.23 33.87 4.38 33.84 4.52 33.82 4.68 33.81 -197.82 27.8 -4.8 -34.67 -4.64 -34.7 -4.5 -34.7 -4.33 -34.73 -4.19 -34.73 -4.04 -34.77 -3.88 -34.77 -3.74 -34.78 -3.58 -34.82 -3.42 -34.81 -3.28 -34.83 -3.12 -34.85 -2.98 -34.85 -2.83 -34.87 -2.66 -34.89 -2.52 -34.89 -2.36 -34.91 -2.22 -34.91 -2.05 -34.93 -1.91 -34.92 -1.76 -34.94 -1.6 -34.96 -1.45 -34.96 -1.29 -34.97 -1.15 -34.96 -0.99 -34.97 -0.84 -34.99 -0.69 -34.99 -0.53 -34.99 -0.39 -35.01 -0.22 -35 -0.08 -35 0 0zm5410.6 -7441.8l-199.76 -0.22 134.04 93.97 -286.57 110.69 -280.32 121.02 -273.87 131.1 -267.25 140.92 -260.45 150.46 -253.46 159.74 -246.28 168.75 -238.92 177.49 -231.37 185.98 -223.64 194.18 -215.7 202.13 -207.6 209.81 -199.31 217.21 -190.8 224.35 -182.14 231.23 -173.28 237.83 -164.23 244.18 -154.98 250.24 -145.56 256.03 -135.95 261.58 -126.15 266.84 -116.16 271.83 -105.99 276.56 -95.62 281.03 -85.07 285.22 -74.34 289.15 -63.42 292.81 -52.31 296.2 -41.01 299.33 -29.52 302.2 -17.85 304.81 -6 307.15 -199.76 0 6.14 -314.93 18.31 -312.57 30.28 -309.92 42.05 -306.99 53.65 -303.8 65.04 -300.31 76.24 -296.55 87.25 -292.54 98.08 -288.21 108.69 -283.64 119.14 -278.79 129.37 -273.64 139.41 -268.26 149.28 -262.57 158.94 -256.62 168.41 -250.4 177.7 -243.89 186.78 -237.13 195.68 -230.07 204.39 -222.77 212.9 -215.15 221.22 -207.31 229.36 -199.14 237.29 -190.74 245.04 -182.05 252.6 -173.07 259.94 -163.82 267.13 -154.32 274.09 -144.52 280.87 -134.46 287.46 -124.1 293.83 -113.49 134.04 93.97zm-134.04 -93.97l134.19 -48.84 -0.15 142.81 -134.04 -93.97zm-68.59 2780.43l2.87 -2686.68 199.76 0.22 -2.87 2686.68 -100.22 99.77 -99.54 -99.99zm199.76 0.22l-0.11 100.11 -100.11 -0.34 100.22 -99.77zm-1936.88 -106.16l1837.34 6.17 -0.68 199.76 -1837.34 -6.17 -99.54 -99.88 100.22 -99.88zm-100.22 99.88l0 -100.22 100.22 0.34 -100.22 99.88zm0 857.09l0 -857.09 199.76 0 0 857.09 -100.22 99.88 -99.54 -99.88zm99.54 99.88l-99.54 -0.33 0 -99.55 99.54 99.88zm1837.34 6.18l-1837.34 -6.18 0.68 -199.76 1837.34 6.18 99.54 99.88 -100.22 99.88zm0.68 -199.76l99.54 0.33 0 99.55 -99.54 -99.88zm-100.22 1753.3l0 -1653.42 199.76 0 0 1653.42 -99.88 99.88 -99.88 -99.88zm99.88 99.88l-99.88 0 0 -99.88 99.88 99.88zm857.09 0l-857.09 0 0 -199.76 857.09 0 99.88 99.88 -99.88 99.88zm99.88 -99.88l0 99.88 -99.88 0 99.88 -99.88zm0 -1653.42l0 1653.42 -199.76 0 0 -1653.42 99.88 -99.88 99.88 99.88zm-199.76 0l0 -99.88 99.88 0 -99.88 99.88zm1370.34 99.88l-1270.46 0 0 -199.76 1270.46 0 99.88 99.88 -99.88 99.88zm0 -199.76l99.88 0 0 99.88 -99.88 -99.88zm-99.88 1753.3l0 -1653.42 199.76 0 0 1653.42 -99.88 99.88 -99.88 -99.88zm99.88 99.88l-99.88 0 0 -99.88 99.88 99.88zm857.09 0l-857.09 0 0 -199.76 857.09 0 99.88 99.88 -99.88 99.88zm99.88 -99.88l0 99.88 -99.88 0 99.88 -99.88zm0 -1653.42l0 1653.42 -199.76 0 0 -1653.42 99.88 -99.88 99.88 99.88zm-199.76 0l0 -99.88 99.88 0 -99.88 99.88zm711.92 99.88l-612.04 0 0 -199.76 612.04 0 2.19 199.74 -2.19 0.02zm2.19 -0.02l-0.91 0.02 -1.28 0 2.19 -0.02zm90.48 -1.98l-90.48 1.98 -4.38 -199.72 90.48 -1.98 84.4 43.14 -80.02 156.58zm-4.38 -199.72l53.82 -1.18 30.58 44.32 -84.4 -43.14zm1061.15 1810.63l-1141.17 -1654.05 164.42 -113.44 1141.17 1654.05 -82.25 156.6 -82.17 -43.16zm82.17 43.16l-52.41 -0.02 -29.76 -43.14 82.17 43.16zm974.23 0.37l-974.23 -0.37 0.08 -199.76 974.23 0.37 82.18 43.16 -82.26 156.6zm82.26 -156.6l108.09 156.67 -190.35 -0.07 82.26 -156.6zm-1279.6 -1854.72l1279.6 1854.72 -164.44 113.44 -1279.6 -1854.72 40.45 -147.45 123.99 34.01zm-164.44 113.44l-67.45 -97.77 107.9 -49.68 -40.45 147.45zm1273.56 -2071.94l199.76 0 0 0 -1.59 101.16 -4.74 98.64 -7.86 96.16 -10.92 93.69 -13.94 91.28 -16.92 88.85 -19.86 86.48 -22.73 84.11 -25.56 81.77 -28.36 79.44 -31.06 77.12 -33.73 74.84 -36.36 72.56 -38.88 70.29 -41.37 68.05 -43.78 65.83 -46.12 63.62 -48.4 61.45 -50.59 59.3 -52.74 57.17 -54.78 55.09 -56.77 53.03 -58.69 51 -60.54 49.03 -62.31 47.09 -64.04 45.19 -65.68 43.33 -67.27 41.52 -68.79 39.76 -70.26 38.02 -71.66 36.36 -73.03 34.72 -83.54 -181.46 68.49 -32.56 67 -34 65.48 -35.44 63.87 -36.9 62.23 -38.42 60.56 -39.95 58.82 -41.51 57.05 -43.09 55.22 -44.73 53.37 -46.38 51.47 -48.07 49.54 -49.81 47.56 -51.57 45.55 -53.38 43.5 -55.23 41.42 -57.14 39.3 -59.09 37.13 -61.07 34.94 -63.15 32.68 -65.24 30.39 -67.42 28.06 -69.64 25.66 -71.92 23.22 -74.25 20.71 -76.65 18.16 -79.1 15.54 -81.59 12.86 -84.14 10.1 -86.75 7.3 -89.4 4.44 -92.08 1.49 -94.82 0 0zm-2117.62 -2117.64l0 -199.76 0 0 119.95 3.52 118.38 10.42 116.61 17.05 114.67 23.45 112.57 29.59 110.31 35.46 107.9 41.09 105.35 46.46 102.66 51.59 99.84 56.46 96.86 61.07 93.77 65.46 90.55 69.61 87.18 73.51 83.7 77.18 80.08 80.62 76.34 83.83 72.45 86.81 68.44 89.55 64.29 92.09 60.01 94.42 55.58 96.48 51.01 98.36 46.31 100.02 41.45 101.45 36.45 102.67 31.28 103.66 25.97 104.45 20.49 105.01 14.85 105.33 9.03 105.44 3.05 105.29 -199.76 0 -2.73 -93.85 -8.09 -94.38 -13.35 -94.73 -18.51 -94.85 -23.55 -94.71 -28.48 -94.34 -33.29 -93.75 -37.95 -92.91 -42.51 -91.8 -46.93 -90.48 -51.2 -88.9 -55.35 -87.08 -59.37 -85.03 -63.22 -82.73 -66.93 -80.21 -70.52 -77.43 -73.94 -74.44 -77.22 -71.2 -80.36 -67.75 -83.33 -64.07 -86.17 -60.16 -88.86 -56.03 -91.4 -51.7 -93.8 -47.13 -96.05 -42.36 -98.16 -37.39 -100.15 -32.2 -101.99 -26.81 -103.73 -21.21 -105.35 -15.41 -106.86 -9.42 -108.27 -3.18 0 0zm-2183.06 -199.76l2183.06 0 0 199.76 -2183.06 0 -99.88 -99.88 99.88 -99.88zm-99.88 99.88l0 -99.88 99.88 0 -99.88 99.88zm0 857.1l0 -857.1 199.76 0 0 857.1 -99.88 99.88 -99.88 -99.88zm99.88 99.88l-99.88 0 0 -99.88 99.88 99.88zm2183.06 0l-2183.06 0 0 -199.76 2183.06 0 0 0 0 199.76zm1456.21 1260.52l-199.76 0 0 0 -1.64 -64.78 -4.85 -63.87 -8 -62.94 -11.05 -61.95 -14.03 -60.85 -16.93 -59.71 -19.74 -58.48 -22.5 -57.18 -25.16 -55.79 -27.75 -54.33 -30.26 -52.78 -32.71 -51.18 -35.04 -49.46 -37.33 -47.67 -39.53 -45.81 -41.63 -43.84 -43.67 -41.81 -45.62 -39.69 -47.5 -37.49 -49.27 -35.22 -50.98 -32.84 -52.61 -30.41 -54.17 -27.89 -55.63 -25.29 -57 -22.6 -58.33 -19.86 -59.56 -17.01 -60.74 -14.1 -61.82 -11.11 -62.86 -8.04 -63.81 -4.88 -64.73 -1.66 0 -199.76 74.87 1.9 73.95 5.66 72.9 9.32 71.76 12.89 70.5 16.38 69.16 19.75 67.71 23.04 66.18 26.24 64.53 29.35 62.81 32.33 60.99 35.25 59.08 38.06 57.07 40.78 54.98 43.41 52.82 45.95 50.53 48.39 48.19 50.74 45.73 53.01 43.21 55.17 40.58 57.26 37.85 59.24 35.06 61.14 32.15 62.95 29.16 64.67 26.08 66.28 22.9 67.82 19.63 69.23 16.25 70.57 12.81 71.79 9.26 72.92 5.63 73.95 1.88 74.84 0 0zm-1456.21 1460.3l0 -199.76 0 0 64.73 -1.66 63.81 -4.88 62.86 -8.04 61.82 -11.11 60.73 -14.1 59.57 -17.02 58.33 -19.85 57 -22.61 55.64 -25.29 54.16 -27.88 52.61 -30.41 50.98 -32.84 49.27 -35.22 47.5 -37.49 45.62 -39.69 43.66 -41.82 41.65 -43.85 39.52 -45.79 37.33 -47.68 35.04 -49.46 32.71 -51.18 30.26 -52.78 27.75 -54.33 25.16 -55.8 22.5 -57.18 19.74 -58.47 16.93 -59.71 14.03 -60.86 11.05 -61.94 8 -62.95 4.85 -63.87 1.64 -64.78 199.76 0 -1.88 74.84 -5.63 73.95 -9.26 72.93 -12.81 71.78 -16.25 70.58 -19.63 69.23 -22.9 67.81 -26.08 66.28 -29.16 64.66 -32.15 62.97 -35.06 61.14 -37.85 59.24 -40.58 57.26 -43.21 55.18 -45.74 53.01 -48.17 50.73 -50.54 48.4 -52.82 45.95 -54.98 43.41 -57.07 40.78 -59.08 38.06 -60.99 35.25 -62.82 32.34 -64.52 29.33 -66.18 26.25 -67.71 23.03 -69.15 19.76 -70.51 16.38 -71.76 12.89 -72.9 9.32 -73.95 5.66 -74.87 1.9 0 0zm-612.04 -199.76l612.04 0 0 199.76 -612.04 0 -99.88 -99.88 99.88 -99.88zm0 199.76l-99.88 0 0 -99.88 99.88 99.88zm99.88 -1712.99l0 1613.11 -199.76 0 0 -1613.11 99.88 -99.88 99.88 99.88zm-99.88 -99.88l99.88 0 0 99.88 -99.88 -99.88zm-857.09 0l857.09 0 0 199.76 -857.09 0 -99.88 -99.88 99.88 -99.88zm-99.88 99.88l0 -99.88 99.88 0 -99.88 99.88zm0 1613.11l0 -1613.11 199.76 0 0 1613.11 -99.88 99.88 -99.88 -99.88zm199.76 0l0 99.88 -99.88 0 99.88 -99.88zm-1370.34 -99.88l1270.46 0 0 199.76 -1270.46 0 -99.88 -100.05 99.88 -99.71zm0 199.76l-100.05 0 0.17 -100.05 99.88 100.05zm105.79 -3671.48l-5.91 3571.77 -199.76 -0.34 5.91 -3571.77 100.21 -99.71 99.55 100.05zm-99.55 -100.05l99.71 0.33 -0.16 99.72 -99.55 -100.05zm-857.08 -2.86l857.08 2.86 -0.66 199.76 -857.08 -2.86 -30.54 -194.88 31.2 -4.88zm-31.2 4.88l15.18 -4.93 16.02 0.05 -31.2 4.88zm-5919.15 8424.86l-199.76 0 0 0 7.2 -358.3 21.43 -355.46 35.44 -352.28 49.19 -348.76 62.74 -344.92 76.02 -340.75 89.08 -336.26 101.9 -331.43 114.48 -326.26 126.82 -320.78 138.93 -314.97 150.8 -308.85 162.44 -302.37 173.83 -295.6 185 -288.47 195.92 -281.03 206.6 -273.27 217.07 -265.18 227.27 -256.76 237.27 -248.01 247 -238.95 256.52 -229.55 265.78 -219.82 274.83 -209.77 283.62 -199.4 292.18 -188.68 300.52 -177.67 308.59 -166.29 316.45 -154.61 324.05 -142.58 331.41 -130.25 338.53 -117.58 61.74 190 -330.97 114.94 -323.95 127.31 -316.73 139.38 -309.29 151.11 -301.61 162.53 -293.7 173.63 -285.58 184.42 -277.2 194.88 -268.61 205.03 -259.78 214.86 -250.72 224.37 -241.44 233.55 -231.91 242.43 -222.17 250.98 -212.17 259.2 -201.96 267.13 -191.52 274.71 -180.82 281.99 -169.93 288.94 -158.78 295.57 -147.4 301.87 -135.79 307.87 -123.96 313.54 -111.9 318.9 -99.6 323.93 -87.06 328.64 -74.3 333.05 -61.32 337.12 -48.09 340.88 -34.64 344.34 -20.95 347.46 -7.04 350.3 0 0zm-14.05 1432.35l94.38 176.06 -145.56 -70.68 -8.26 -47.62 -8 -47.64 -7.75 -47.71 -7.47 -47.73 -7.22 -47.75 -6.96 -47.8 -6.7 -47.84 -6.43 -47.87 -6.17 -47.89 -5.92 -47.93 -5.64 -47.96 -5.39 -47.98 -5.13 -48.01 -4.86 -48.06 -4.59 -48.05 -4.35 -48.08 -4.08 -48.12 -3.81 -48.13 -3.55 -48.16 -3.29 -48.17 -3.02 -48.19 -2.77 -48.21 -2.5 -48.23 -2.24 -48.24 -1.98 -48.25 -1.71 -48.28 -1.45 -48.27 -1.19 -48.29 -0.92 -48.32 -0.66 -48.3 -0.39 -48.33 -0.13 -48.32 199.76 0 0.13 47.24 0.39 47.23 0.64 47.22 0.9 47.2 1.17 47.21 1.41 47.21 1.67 47.16 1.94 47.17 2.18 47.16 2.44 47.13 2.71 47.13 2.96 47.11 3.21 47.09 3.47 47.06 3.73 47.05 3.98 47.02 4.25 47 4.49 46.99 4.76 46.94 5.01 46.93 5.27 46.92 5.52 46.86 5.78 46.85 6.03 46.83 6.29 46.77 6.54 46.76 6.8 46.72 7.06 46.69 7.31 46.65 7.57 46.61 7.82 46.58 8.08 46.54 -145.56 -70.68zm94.38 176.06l-121.6 65.19 -23.96 -135.87 145.56 70.68zm780.06 -418.21l-780.06 418.21 -94.38 -176.06 780.06 -418.21 146.1 74.13 -51.72 101.93zm51.72 -101.93l9.7 69 -61.42 32.93 51.72 -101.93zm12544.13 -3332.96l0 -5244.61 199.76 0 0 5244.61 -99.88 99.88 -99.88 -99.88zm199.76 0l0 99.88 -99.88 0 99.88 -99.88zm-956.98 -99.88l857.1 0 0 199.76 -857.1 0 -99.88 -99.88 99.88 -99.88zm0 199.76l-99.88 0 0 -99.88 99.88 99.88zm99.88 -5344.49l0 5244.61 -199.76 0 0 -5244.61 99.88 -99.88 99.88 99.88zm-99.88 -99.88l99.88 0 0 99.88 -99.88 -99.88zm-1222.12 0l1222.12 0 0 199.76 -1222.12 0 -99.88 -99.88 99.88 -99.88zm0 199.76l-99.88 0 0 -99.88 99.88 99.88zm99.88 -956.98l0 857.1 -199.76 0 0 -857.1 99.88 -99.88 99.88 99.88zm-199.76 0l0 -99.88 99.88 0 -99.88 99.88zm3155.73 99.88l-3055.85 0 0 -199.76 3055.85 0 99.88 99.88 -99.88 99.88zm0 -199.76l99.88 0 0 99.88 -99.88 -99.88zm-99.88 956.98l0 -857.1 199.76 0 0 857.1 -99.88 99.88 -99.88 -99.88zm199.76 0l0 99.88 -99.88 0 99.88 -99.88zm-1076.51 -99.88l976.63 0 0 199.76 -976.63 0 -99.88 -99.88 99.88 -99.88zm-99.88 99.88l0 -99.88 99.88 0 -99.88 99.88z"/>
   </g>
  </g>
 </g>
</svg>
